<svg xmlns="http://www.w3.org/2000/svg" xmlns:xlink="http://www.w3.org/1999/xlink" xmlns:lucid="lucid" width="1391.51" height="1423"><g transform="translate(10.012511099623325 316.83333333333326)" lucid:page-tab-id="WCysiEo_-C-p"><path d="M0-500h1500v2000H0z" fill="#fff"/><path d="M84.32 70.67a6 6 0 0 1 6-6h372.45a6 6 0 0 1 6 6v118.66a6 6 0 0 1-6 6H90.32a6 6 0 0 1-6-6z" stroke="#3a414a" stroke-width="3" fill="#c3f7c8"/><use xlink:href="#a" transform="matrix(1,0,0,1,96.32040168458511,76.66666666666676) translate(83.52160493827161 43.173611111111114)"/><use xlink:href="#b" transform="matrix(1,0,0,1,96.32040168458511,76.66666666666676) translate(149.24382716049382 43.173611111111114)"/><use xlink:href="#c" transform="matrix(1,0,0,1,96.32040168458511,76.66666666666676) translate(214.8858024691358 43.173611111111114)"/><use xlink:href="#d" transform="matrix(1,0,0,1,96.32040168458511,76.66666666666676) translate(246.98456790123458 43.173611111111114)"/><use xlink:href="#e" transform="matrix(1,0,0,1,96.32040168458511,76.66666666666676) translate(15.432098765432102 77.84027777777777)"/><use xlink:href="#f" transform="matrix(1,0,0,1,96.32040168458511,76.66666666666676) translate(218.85802469135803 77.84027777777777)"/><use xlink:href="#g" transform="matrix(1,0,0,1,96.32040168458511,76.66666666666676) translate(242.9320987654321 77.84027777777777)"/><use xlink:href="#h" transform="matrix(1,0,0,1,96.32040168458511,76.66666666666676) translate(275.0308641975309 77.84027777777777)"/><path d="M1007.6 610.67a6 6 0 0 1 6-6H1354a6 6 0 0 1 6 6v108a6 6 0 0 1-6 6h-340.4a6 6 0 0 1-6-6z" stroke="#3a414a" stroke-width="3" fill="#c3f7c8"/><use xlink:href="#i" transform="matrix(1,0,0,1,1019.589512575144,616.6666666666667) translate(28.240740740740762 53.111111111111114)"/><use xlink:href="#j" transform="matrix(1,0,0,1,1019.589512575144,616.6666666666667) translate(114.90740740740743 53.111111111111114)"/><use xlink:href="#k" transform="matrix(1,0,0,1,1019.589512575144,616.6666666666667) translate(251.08641975308643 53.111111111111114)"/><path d="M418.33-295.33c24.3 0 44 19.7 44 44 0 24.32-19.7 44.02-44 44.02H105.9c-24.32 0-44.02-19.7-44.02-44.02 0-24.3 19.7-44 44-44z" stroke="#3a414a" stroke-width="3" fill="#ffe342"/><use xlink:href="#l" transform="matrix(1,0,0,1,66.87650843501547,-290.33333333333326) translate(167.4537037037037 45.329861111111114)"/><path d="M262.1-204.3v87.85" stroke="#3a414a" stroke-width="3" fill="none"/><path d="M263.6-204.27h-3v-1.54h3z" stroke="#3a414a" stroke-width=".05" fill="#3a414a"/><path d="M262.1-100.7l-4.63-14.25h9.27z" stroke="#3a414a" stroke-width="3" fill="#3a414a"/><path d="M247.56 486.82a15.62 15.62 0 0 1 11.2 0l197.04 75.7a2.3 2.3 0 0 1 0 4.3l-197.04 75.7a15.62 15.62 0 0 1-11.2 0L50.52 566.8a2.3 2.3 0 0 1 0-4.3z" stroke="#3a414a" stroke-width="3" fill="#fc9432"/><use xlink:href="#m" transform="matrix(1,0,0,1,49.92026556578253,489.66666666666674) translate(77.79820987654321 79.36111111111111)"/><use xlink:href="#n" transform="matrix(1,0,0,1,49.92026556578253,489.66666666666674) translate(169.2796913580247 79.36111111111111)"/><use xlink:href="#o" transform="matrix(1,0,0,1,49.92026556578253,489.66666666666674) translate(191.6685802469136 79.36111111111111)"/><use xlink:href="#p" transform="matrix(1,0,0,1,49.92026556578253,489.66666666666674) translate(265.4154938271605 79.36111111111111)"/><use xlink:href="#q" transform="matrix(1,0,0,1,49.92026556578253,489.66666666666674) translate(294.22413580246916 79.36111111111111)"/><path d="M608.58 672.5H254.66v-3h353.92zm376.9-6.33h-334.8v-3h334.8z" stroke="#3a414a" stroke-width=".05" fill="#3a414a"/><path d="M254.7 672.5h-1.54v-3h1.54z" stroke="#3a414a" stroke-width=".05" fill="#3a414a"/><path d="M1001.24 664.67l-14.27 4.63v-9.27z" fill="#3a414a"/><path d="M1006.1 664.67l-20.63 6.7v-13.4zm-17.63 2.57l7.9-2.57-7.9-2.57z" stroke="#3a414a" stroke-width=".05" fill="#3a414a"/><use xlink:href="#r" transform="matrix(1,0,0,1,608.5768117299392,653.1634070138001) translate(0 19.555555555555557)"/><path d="M822.68 558.73l-.1 1.1-.26 1.16-.46 1.07-.6 1-.77.9-.9.77-1 .6-1.1.46-1.15.28-1.1.1H460.28v-3H815.1l.76-.07.7-.16.64-.27.6-.37.54-.45.46-.54.36-.6.27-.64.17-.7.06-.75V135.6h3zm-6.33-686.3l1.15.28 1.1.46 1 .6.88.78.77.9.62 1 .45 1.08.27 1.15.08 1.1v226.48h-3V-120.1l-.06-.76-.17-.7-.27-.64-.36-.6-.46-.54-.54-.45-.6-.36-.65-.27-.7-.17-.75-.06h-532.4v-3h532.52z" stroke="#3a414a" stroke-width=".05" fill="#3a414a"/><path d="M460.33 566.17h-1.87l.22-.6.1-.9-.1-.9-.22-.6h1.87z" fill="#3a414a"/><path d="M460.36 566.2h-1.94l.24-.63.1-.9-.1-.9-.24-.63h1.94zm-1.86-3l.2.55.12.92-.1.9-.22.57h1.8v-2.95z" stroke="#3a414a" stroke-width=".05" fill="#3a414a"/><path d="M281.23-121.52l-14.27-4.64 14.27-4.63z" fill="#3a414a"/><path d="M282.73-119.46l-20.62-6.7 20.63-6.7zm-10.9-6.7l7.9 2.57v-5.13z" stroke="#3a414a" stroke-width=".05" fill="#3a414a"/><use xlink:href="#s" transform="matrix(1,0,0,1,804.9502985202599,106.24610281097121) translate(0 19.555555555555557)"/><path d="M254.86 249.28a17.25 17.25 0 0 1 11.33 0l196.9 68.5a2.1 2.1 0 0 1 0 3.95l-196.9 68.5a17.25 17.25 0 0 1-11.34 0l-196.9-68.5a2.1 2.1 0 0 1 0-3.94z" stroke="#3a414a" stroke-width="3" fill="#fc9432"/><use xlink:href="#t" transform="matrix(1,0,0,1,57.28308465502994,252.31015667136955) translate(100.44944444444445 73.73611111111111)"/><use xlink:href="#u" transform="matrix(1,0,0,1,57.28308465502994,252.31015667136955) translate(130.94327160493827 73.73611111111111)"/><use xlink:href="#v" transform="matrix(1,0,0,1,57.28308465502994,252.31015667136955) translate(198.2704320987654 73.73611111111111)"/><use xlink:href="#w" transform="matrix(1,0,0,1,57.28308465502994,252.31015667136955) translate(231.8938888888889 73.73611111111111)"/><path d="M260.53 198.33v27.87" stroke="#3a414a" stroke-width="3" fill="none"/><path d="M262.03 198.37h-3v-1.54h3z" stroke="#3a414a" stroke-width=".05" fill="#3a414a"/><path d="M260.53 241.97l-4.64-14.27h9.26z" stroke="#3a414a" stroke-width="3" fill="#3a414a"/><path d="M16.54 1038.6l.06.77.16.7.27.64.37.6.46.55.54.45.6.37.65.27.68.17.77.07h28.44v3H20.98l-1.12-.1-1.14-.27-1.1-.45-1-.6-.9-.78-.76-.9-.6-1-.46-1.08-.28-1.16-.08-1.1v-334.3h3zm37-717.34H21.1l-.77.06-.68.17-.65.26-.6.37-.54.45-.46.54-.37.6-.27.65-.16.7-.06.75v349.3h-3V325.7l.1-1.1.26-1.16.45-1.08.62-1 .76-.9.9-.77 1-.62 1.1-.45 1.13-.28 1.12-.1h32.56z" stroke="#3a414a" stroke-width=".05" fill="#3a414a"/><path d="M55.15 318.88l-.1.88.1.88.24.62h-1.9v-3h1.9z" fill="#3a414a"/><path d="M55.17 318.9l-.1.86.1.88.25.65h-1.95v-3.06h1.95zm-1.65-.6v2.94h1.83l-.23-.6-.1-.88.1-.88.23-.6z" stroke="#3a414a" stroke-width=".05" fill="#3a414a"/><path d="M65.3 1044.67l-14.26 4.63v-9.27z" fill="#3a414a"/><path d="M70.16 1044.67l-20.62 6.7v-13.4zm-17.62 2.57l7.9-2.57-7.9-2.57z" stroke="#3a414a" stroke-width=".05" fill="#3a414a"/><use xlink:href="#r" transform="matrix(1,0,0,1,-6.012511099623325,675.1094653952445) translate(0 19.555555555555557)"/><path d="M485.02 1004.67c22.1 0 40 17.9 40 40s-17.9 40-40 40H111.66c-22.1 0-40-17.9-40-40s17.9-40 40-40z" stroke="#3a414a" stroke-width="3" fill="#ffe342"/><use xlink:href="#x" transform="matrix(1,0,0,1,76.6610779827092,1009.6666666666667) translate(153.99074074074076 40.611111111111114)"/><path d="M254.66 463.66h-3v-10.5h3zm7.37-39.84h-3V394.2h3z" stroke="#3a414a" stroke-width=".05" fill="#3a414a"/><path d="M259.27 392.66l1.26.04 1.25-.04.25-.03v1.6h-3v-1.6z" fill="#3a414a"/><path d="M259.27 392.63l1.26.05 1.25-.05.27-.02v1.66H259v-1.65zm-.22 1.58H262v-1.54l-.22.02-1.25.05-1.26-.05-.22-.02z" stroke="#3a414a" stroke-width=".05" fill="#3a414a"/><path d="M253.16 479.42l-4.63-14.26h9.27z" fill="#3a414a"/><path d="M253.16 484.28l-6.7-20.62h13.4zm-2.57-17.62l2.56 7.9 2.57-7.9z" stroke="#3a414a" stroke-width=".05" fill="#3a414a"/><use xlink:href="#s" transform="matrix(1,0,0,1,240.61584079972909,423.82327982173337) translate(0 19.555555555555557)"/><path d="M609.48 843.13h149.34a.2.2 0 0 1 .2.2.2.2 0 0 0 .18.18h130.23" stroke="#3a414a" stroke-width="3" fill="none"/><path d="M609.52 844.63h-1.54v-3h1.54z" stroke="#3a414a" stroke-width=".05" fill="#3a414a"/><path d="M905.2 843.5l-14.27 4.65v-9.27z" stroke="#3a414a" stroke-width="3" fill="#3a414a"/><path d="M931.08 770.46a7.8 7.8 0 0 1 7.55-5.8h377.32a4.6 4.6 0 0 1 4.46 5.8l-28.9 108.4a7.8 7.8 0 0 1-7.55 5.8H906.63a4.6 4.6 0 0 1-4.46-5.8z" stroke="#54c45e" stroke-width="3" fill="#54c45e"/><use xlink:href="#y" transform="matrix(1,0,0,1,905.6262629074374,769.6666666666667) translate(135.5482098765432 60.923611111111114)"/><use xlink:href="#z" transform="matrix(1,0,0,1,905.6262629074374,769.6666666666667) translate(226.78895061728394 60.923611111111114)"/><path d="M61.84 750.67a6 6 0 0 1 6-6h532.64a6 6 0 0 1 6 6v148a6 6 0 0 1-6 6H67.84a6 6 0 0 1-6-6z" stroke="#3a414a" stroke-width="3" fill="#c3f7c8"/><g><use xlink:href="#A" transform="matrix(1,0,0,1,68.84293666464771,751.6666666666667) translate(105.20679012345684 80.40972222222221)"/><use xlink:href="#B" transform="matrix(1,0,0,1,68.84293666464771,751.6666666666667) translate(233.12654320987656 80.40972222222221)"/><use xlink:href="#C" transform="matrix(1,0,0,1,68.84293666464771,751.6666666666667) translate(296.0895061728395 80.40972222222221)"/><use xlink:href="#D" transform="matrix(1,0,0,1,68.84293666464771,751.6666666666667) translate(367.23765432098764 80.40972222222221)"/></g><path d="M253.16 646.55v76.01" stroke="#3a414a" stroke-width="3" fill="none"/><path d="M251.9 645l1.26.05 1.26-.04.24-.02v1.6h-3V645z" stroke="#3a414a" stroke-width=".05" fill="#3a414a"/><path d="M253.16 738.3l-4.63-14.25h9.27z" stroke="#3a414a" stroke-width="3" fill="#3a414a"/><path d="M85.9-89.54a7.8 7.8 0 0 1 7.55-5.8h369.32a4.6 4.6 0 0 1 4.45 5.8l-28.9 108.4a7.8 7.8 0 0 1-7.55 5.8H61.45a4.6 4.6 0 0 1-4.45-5.8z" stroke="#3a414a" fill="#54c45e"/><g><use xlink:href="#E" transform="matrix(1,0,0,1,60.45127369568934,-90.33333333333326) translate(49.492654320987654 43.61805555555556)"/><use xlink:href="#F" transform="matrix(1,0,0,1,60.45127369568934,-90.33333333333326) translate(142.85685185185184 43.61805555555556)"/><use xlink:href="#G" transform="matrix(1,0,0,1,60.45127369568934,-90.33333333333326) translate(195.75191358024693 43.61805555555556)"/><use xlink:href="#H" transform="matrix(1,0,0,1,60.45127369568934,-90.33333333333326) translate(298.7580864197531 43.61805555555556)"/><use xlink:href="#I" transform="matrix(1,0,0,1,60.45127369568934,-90.33333333333326) translate(95.46487654320988 72.95138888888889)"/><use xlink:href="#J" transform="matrix(1,0,0,1,60.45127369568934,-90.33333333333326) translate(274.3846296296296 72.95138888888889)"/></g><path d="M266.67 26.67v12.97a4.52 4.52 0 0 1-4.52 4.53h-4.53" stroke="#3a414a" stroke-width="3" fill="none"/><path d="M268.17 26.7h-3v-1.53h3z" stroke="#3a414a" stroke-width=".05" fill="#3a414a"/><path d="M256.42 58.33l-3.4-14.6 9.23.78z" stroke="#3a414a" stroke-width="3" fill="#3a414a"/><path d="M1203.32 602.67h-1V166.95h1zm-5.48-778.6l1 .24.93.4.87.53.77.66.68.77.53.87.4.94.24 1 .08 1V145.6h-1v-315.1l-.07-.9-.2-.83-.33-.8-.45-.74-.56-.66-.65-.56-.74-.45-.78-.34-.84-.2-.88-.07H278.5v-1h918.34z" stroke="#3a414a" stroke-width=".05" fill="#3a414a"/><path d="M1203.32 603.17h-1v-.52h1z" fill="#3a414a"/><path d="M1203.34 603.2h-1.05v-.57h1.04zm-1-.52v.46h.95v-.46z" stroke="#3a414a" stroke-width=".05" fill="#3a414a"/><path d="M278-170.88l-14.27-4.63 14.26-4.65z" fill="#3a414a"/><path d="M278.5-170.2l-16.4-5.3 16.4-5.34zm-13.15-5.3l12.14 3.94v-7.9z" stroke="#3a414a" stroke-width=".05" fill="#3a414a"/><g><use xlink:href="#K" transform="matrix(1,0,0,1,1158.44744921697,145.61814201472757) translate(0 14.222222222222223)"/><use xlink:href="#L" transform="matrix(1,0,0,1,1158.44744921697,145.61814201472757) translate(42.41975308641976 14.222222222222223)"/></g><defs><path fill="#3a414a" d="M114-163C36-179 61-72 57 0H25l-1-190h30c1 12-1 29 2 39 6-27 23-49 58-41v29" id="M"/><path fill="#3a414a" d="M100-194c63 0 86 42 84 106H49c0 40 14 67 53 68 26 1 43-12 49-29l28 8c-11 28-37 45-77 45C44 4 14-33 15-96c1-61 26-98 85-98zm52 81c6-60-76-77-97-28-3 7-6 17-6 28h103" id="N"/><path fill="#3a414a" d="M141-36C126-15 110 5 73 4 37 3 15-17 15-53c-1-64 63-63 125-63 3-35-9-54-41-54-24 1-41 7-42 31l-33-3c5-37 33-52 76-52 45 0 72 20 72 64v82c-1 20 7 32 28 27v20c-31 9-61-2-59-35zM48-53c0 20 12 33 32 33 41-3 63-29 60-74-43 2-92-5-92 41" id="O"/><path fill="#3a414a" d="M85-194c31 0 48 13 60 33l-1-100h32l1 261h-30c-2-10 0-23-3-31C134-8 116 4 85 4 32 4 16-35 15-94c0-66 23-100 70-100zm9 24c-40 0-46 34-46 75 0 40 6 74 45 74 42 0 51-32 51-76 0-42-9-74-50-73" id="P"/><g id="a"><use transform="matrix(0.08024691358024691,0,0,0.08024691358024691,0,0)" xlink:href="#M"/><use transform="matrix(0.08024691358024691,0,0,0.08024691358024691,9.549382716049383,0)" xlink:href="#N"/><use transform="matrix(0.08024691358024691,0,0,0.08024691358024691,25.598765432098762,0)" xlink:href="#O"/><use transform="matrix(0.08024691358024691,0,0,0.08024691358024691,41.64814814814815,0)" xlink:href="#P"/></g><path fill="#3a414a" d="M101-234c-31-9-42 10-38 44h38v23H63V0H32v-167H5v-23h27c-7-52 17-82 69-68v24" id="Q"/><path fill="#3a414a" d="M100-194c62-1 85 37 85 99 1 63-27 99-86 99S16-35 15-95c0-66 28-99 85-99zM99-20c44 1 53-31 53-75 0-43-8-75-51-75s-53 32-53 75 10 74 51 75" id="R"/><path fill="#3a414a" d="M210-169c-67 3-38 105-44 169h-31v-121c0-29-5-50-35-48C34-165 62-65 56 0H25l-1-190h30c1 10-1 24 2 32 10-44 99-50 107 0 11-21 27-35 58-36 85-2 47 119 55 194h-31v-121c0-29-5-49-35-48" id="S"/><g id="b"><use transform="matrix(0.08024691358024691,0,0,0.08024691358024691,0,0)" xlink:href="#Q"/><use transform="matrix(0.08024691358024691,0,0,0.08024691358024691,8.024691358024691,0)" xlink:href="#M"/><use transform="matrix(0.08024691358024691,0,0,0.08024691358024691,17.574074074074076,0)" xlink:href="#R"/><use transform="matrix(0.08024691358024691,0,0,0.08024691358024691,33.623456790123456,0)" xlink:href="#S"/></g><g id="c"><use transform="matrix(0.08024691358024691,0,0,0.08024691358024691,0,0)" xlink:href="#Q"/><use transform="matrix(0.08024691358024691,0,0,0.08024691358024691,8.024691358024691,0)" xlink:href="#P"/></g><path fill="#3a414a" d="M115-194c53 0 69 39 70 98 0 66-23 100-70 100C84 3 66-7 56-30L54 0H23l1-261h32v101c10-23 28-34 59-34zm-8 174c40 0 45-34 45-75 0-40-5-75-45-74-42 0-51 32-51 76 0 43 10 73 51 73" id="T"/><path fill="#3a414a" d="M179-190L93 31C79 59 56 82 12 73V49c39 6 53-20 64-50L1-190h34L92-34l54-156h33" id="U"/><g id="d"><use transform="matrix(0.08024691358024691,0,0,0.08024691358024691,0,0)" xlink:href="#T"/><use transform="matrix(0.08024691358024691,0,0,0.08024691358024691,16.049382716049383,0)" xlink:href="#U"/></g><path fill="#3a414a" d="M160-131c35 5 61 23 61 61C221 17 115-2 30 0v-248c76 3 177-17 177 60 0 33-19 50-47 57zm-97-11c50-1 110 9 110-42 0-47-63-36-110-37v79zm0 115c55-2 124 14 124-45 0-56-70-42-124-44v89" id="V"/><path fill="#3a414a" d="M232-93c-1 65-40 97-104 97C67 4 28-28 28-90v-158h33c8 89-33 224 67 224 102 0 64-133 71-224h33v155" id="W"/><path fill="#3a414a" d="M63-220v92h138v28H63V0H30v-248h175v28H63" id="X"/><path fill="#3a414a" d="M30 0v-248h187v28H63v79h144v27H63v87h162V0H30" id="Y"/><path fill="#3a414a" d="M233-177c-1 41-23 64-60 70L243 0h-38l-65-103H63V0H30v-248c88 3 205-21 203 71zM63-129c60-2 137 13 137-47 0-61-80-42-137-45v92" id="Z"/><path fill="#3a414a" d="M-5 72V49h209v23H-5" id="aa"/><path fill="#3a414a" d="M185-189c-5-48-123-54-124 2 14 75 158 14 163 119 3 78-121 87-175 55-17-10-28-26-33-46l33-7c5 56 141 63 141-1 0-78-155-14-162-118-5-82 145-84 179-34 5 7 8 16 11 25" id="ab"/><path fill="#3a414a" d="M33 0v-248h34V0H33" id="ac"/><path fill="#3a414a" d="M209 0H11v-25l151-195H24v-28h176v25L50-27h159V0" id="ad"/><g id="e"><use transform="matrix(0.08024691358024691,0,0,0.08024691358024691,0,0)" xlink:href="#V"/><use transform="matrix(0.08024691358024691,0,0,0.08024691358024691,19.25925925925926,0)" xlink:href="#W"/><use transform="matrix(0.08024691358024691,0,0,0.08024691358024691,40.04320987654321,0)" xlink:href="#X"/><use transform="matrix(0.08024691358024691,0,0,0.08024691358024691,57.61728395061728,0)" xlink:href="#X"/><use transform="matrix(0.08024691358024691,0,0,0.08024691358024691,75.19135802469135,0)" xlink:href="#Y"/><use transform="matrix(0.08024691358024691,0,0,0.08024691358024691,94.4506172839506,0)" xlink:href="#Z"/><use transform="matrix(0.08024691358024691,0,0,0.08024691358024691,115.23456790123456,0)" xlink:href="#aa"/><use transform="matrix(0.08024691358024691,0,0,0.08024691358024691,131.28395061728395,0)" xlink:href="#ab"/><use transform="matrix(0.08024691358024691,0,0,0.08024691358024691,150.54320987654322,0)" xlink:href="#ac"/><use transform="matrix(0.08024691358024691,0,0,0.08024691358024691,158.5679012345679,0)" xlink:href="#ad"/><use transform="matrix(0.08024691358024691,0,0,0.08024691358024691,176.14197530864197,0)" xlink:href="#Y"/></g><path fill="#3a414a" d="M158-156l-14 65h45v19h-49L124 0h-19l15-72H56L41 0H22l15-72H2v-19h39l14-65H11v-19h48l15-71h20l-16 71h64l16-71h19l-16 71h37v19h-40zm-83 0L61-91h63l14-65H75" id="ae"/><use transform="matrix(0.08024691358024691,0,0,0.08024691358024691,0,0)" xlink:href="#ae" id="f"/><g id="g"><use transform="matrix(0.08024691358024691,0,0,0.08024691358024691,0,0)" xlink:href="#R"/><use transform="matrix(0.08024691358024691,0,0,0.08024691358024691,16.049382716049383,0)" xlink:href="#Q"/></g><path fill="#3a414a" d="M96-169c-40 0-48 33-48 73s9 75 48 75c24 0 41-14 43-38l32 2c-6 37-31 61-74 61-59 0-76-41-82-99-10-93 101-131 147-64 4 7 5 14 7 22l-32 3c-4-21-16-35-41-35" id="af"/><path fill="#3a414a" d="M106-169C34-169 62-67 57 0H25v-261h32l-1 103c12-21 28-36 61-36 89 0 53 116 60 194h-32v-121c2-32-8-49-39-48" id="ag"/><path fill="#3a414a" d="M135-143c-3-34-86-38-87 0 15 53 115 12 119 90S17 21 10-45l28-5c4 36 97 45 98 0-10-56-113-15-118-90-4-57 82-63 122-42 12 7 21 19 24 35" id="ah"/><g id="h"><use transform="matrix(0.08024691358024691,0,0,0.08024691358024691,0,0)" xlink:href="#af"/><use transform="matrix(0.08024691358024691,0,0,0.08024691358024691,14.444444444444443,0)" xlink:href="#ag"/><use transform="matrix(0.08024691358024691,0,0,0.08024691358024691,30.493827160493826,0)" xlink:href="#O"/><use transform="matrix(0.08024691358024691,0,0,0.08024691358024691,46.54320987654321,0)" xlink:href="#M"/><use transform="matrix(0.08024691358024691,0,0,0.08024691358024691,56.092592592592595,0)" xlink:href="#ah"/></g><path fill="#3a414a" d="M24 0v-248h195v40H76v63h132v40H76v65h150V0H24" id="ai"/><path fill="#3a414a" d="M135-150c-39-12-60 13-60 57V0H25l-1-190h47c2 13-1 29 3 40 6-28 27-53 61-41v41" id="aj"/><path fill="#3a414a" d="M133-34C117-15 103 5 69 4 32 3 11-16 11-54c-1-60 55-63 116-61 1-26-3-47-28-47-18 1-26 9-28 27l-52-2c7-38 36-58 82-57s74 22 75 68l1 82c-1 14 12 18 25 15v27c-30 8-71 5-69-32zm-48 3c29 0 43-24 42-57-32 0-66-3-65 30 0 17 8 27 23 27" id="ak"/><path fill="#3a414a" d="M137-138c1-29-70-34-71-4 15 46 118 7 119 86 1 83-164 76-172 9l43-7c4 19 20 25 44 25 33 8 57-30 24-41C81-84 22-81 20-136c-2-80 154-74 161-7" id="al"/><path fill="#3a414a" d="M185-48c-13 30-37 53-82 52C43 2 14-33 14-96s30-98 90-98c62 0 83 45 84 108H66c0 31 8 55 39 56 18 0 30-7 34-22zm-45-69c5-46-57-63-70-21-2 6-4 13-4 21h74" id="am"/><g id="i"><use transform="matrix(0.08024691358024691,0,0,0.08024691358024691,0,0)" xlink:href="#ai"/><use transform="matrix(0.08024691358024691,0,0,0.08024691358024691,19.25925925925926,0)" xlink:href="#aj"/><use transform="matrix(0.08024691358024691,0,0,0.08024691358024691,30.49382716049383,0)" xlink:href="#ak"/><use transform="matrix(0.08024691358024691,0,0,0.08024691358024691,46.543209876543216,0)" xlink:href="#al"/><use transform="matrix(0.08024691358024691,0,0,0.08024691358024691,62.592592592592595,0)" xlink:href="#am"/></g><path fill="#3a414a" d="M144 0l-44-69L55 0H2l70-98-66-92h53l41 62 40-62h54l-67 91 71 99h-54" id="an"/><path fill="#3a414a" d="M115-3C79 11 28 4 28-45v-112H4v-33h27l15-45h31v45h36v33H77v99c-1 23 16 31 38 25v30" id="ao"/><path fill="#3a414a" d="M190-63c-7 42-38 67-86 67-59 0-84-38-90-98-12-110 154-137 174-36l-49 2c-2-19-15-32-35-32-30 0-35 28-38 64-6 74 65 87 74 30" id="ap"/><path fill="#3a414a" d="M88-194c31-1 46 15 58 34l-1-101h50l1 261h-48c-2-10 0-23-3-31C134-8 116 4 84 4 32 4 16-41 15-95c0-56 19-97 73-99zm17 164c33 0 40-30 41-66 1-37-9-64-41-64s-38 30-39 65c0 43 13 65 39 65" id="aq"/><g id="j"><use transform="matrix(0.08024691358024691,0,0,0.08024691358024691,0,0)" xlink:href="#am"/><use transform="matrix(0.08024691358024691,0,0,0.08024691358024691,16.049382716049383,0)" xlink:href="#an"/><use transform="matrix(0.08024691358024691,0,0,0.08024691358024691,32.098765432098766,0)" xlink:href="#ao"/><use transform="matrix(0.08024691358024691,0,0,0.08024691358024691,41.64814814814815,0)" xlink:href="#aj"/><use transform="matrix(0.08024691358024691,0,0,0.08024691358024691,52.88271604938272,0)" xlink:href="#ak"/><use transform="matrix(0.08024691358024691,0,0,0.08024691358024691,68.9320987654321,0)" xlink:href="#ap"/><use transform="matrix(0.08024691358024691,0,0,0.08024691358024691,84.98148148148148,0)" xlink:href="#ao"/><use transform="matrix(0.08024691358024691,0,0,0.08024691358024691,94.53086419753086,0)" xlink:href="#am"/><use transform="matrix(0.08024691358024691,0,0,0.08024691358024691,110.58024691358024,0)" xlink:href="#aq"/></g><path fill="#3a414a" d="M25 0v-261h50V0H25" id="ar"/><path fill="#3a414a" d="M25-224v-37h50v37H25zM25 0v-190h50V0H25" id="as"/><path fill="#3a414a" d="M135-194c87-1 58 113 63 194h-50c-7-57 23-157-34-157-59 0-34 97-39 157H25l-1-190h47c2 12-1 28 3 38 12-26 28-41 61-42" id="at"/><g id="k"><use transform="matrix(0.08024691358024691,0,0,0.08024691358024691,0,0)" xlink:href="#ar"/><use transform="matrix(0.08024691358024691,0,0,0.08024691358024691,8.024691358024691,0)" xlink:href="#as"/><use transform="matrix(0.08024691358024691,0,0,0.08024691358024691,16.049382716049383,0)" xlink:href="#at"/><use transform="matrix(0.08024691358024691,0,0,0.08024691358024691,33.623456790123456,0)" xlink:href="#am"/></g><path fill="#3a414a" d="M59-47c-2 24 18 29 38 22v24C64 9 27 4 27-40v-127H5v-23h24l9-43h21v43h35v23H59v120" id="au"/><g id="l"><use transform="matrix(0.08024691358024691,0,0,0.08024691358024691,0,0)" xlink:href="#ah"/><use transform="matrix(0.08024691358024691,0,0,0.08024691358024691,14.444444444444443,0)" xlink:href="#au"/><use transform="matrix(0.08024691358024691,0,0,0.08024691358024691,22.469135802469136,0)" xlink:href="#O"/><use transform="matrix(0.08024691358024691,0,0,0.08024691358024691,38.51851851851852,0)" xlink:href="#M"/><use transform="matrix(0.08024691358024691,0,0,0.08024691358024691,48.0679012345679,0)" xlink:href="#au"/></g><path fill="#3a414a" d="M143 0L79-87 56-68V0H24v-261h32v163l83-92h37l-77 82L181 0h-38" id="av"/><g id="m"><use transform="matrix(0.08024691358024691,0,0,0.08024691358024691,0,0)" xlink:href="#af"/><use transform="matrix(0.08024691358024691,0,0,0.08024691358024691,14.444444444444443,0)" xlink:href="#ag"/><use transform="matrix(0.08024691358024691,0,0,0.08024691358024691,30.493827160493826,0)" xlink:href="#N"/><use transform="matrix(0.08024691358024691,0,0,0.08024691358024691,46.54320987654321,0)" xlink:href="#af"/><use transform="matrix(0.08024691358024691,0,0,0.08024691358024691,60.98765432098765,0)" xlink:href="#av"/></g><path fill="#3a414a" d="M24-231v-30h32v30H24zM24 0v-190h32V0H24" id="aw"/><g id="n"><use transform="matrix(0.08024691358024691,0,0,0.08024691358024691,0,0)" xlink:href="#aw"/><use transform="matrix(0.08024691358024691,0,0,0.08024691358024691,6.3395061728395055,0)" xlink:href="#Q"/></g><g id="o"><use transform="matrix(0.08024691358024691,0,0,0.08024691358024691,0,0)" xlink:href="#au"/><use transform="matrix(0.08024691358024691,0,0,0.08024691358024691,8.024691358024691,0)" xlink:href="#ag"/><use transform="matrix(0.08024691358024691,0,0,0.08024691358024691,24.074074074074076,0)" xlink:href="#N"/><use transform="matrix(0.08024691358024691,0,0,0.08024691358024691,40.123456790123456,0)" xlink:href="#M"/><use transform="matrix(0.08024691358024691,0,0,0.08024691358024691,49.672839506172835,0)" xlink:href="#N"/></g><g id="p"><use transform="matrix(0.08024691358024691,0,0,0.08024691358024691,0,0)" xlink:href="#aw"/><use transform="matrix(0.08024691358024691,0,0,0.08024691358024691,6.3395061728395055,0)" xlink:href="#ah"/></g><path fill="#3a414a" d="M47-170H22l-4-78h33" id="ax"/><path fill="#3a414a" d="M72 4L0-261h28L100 4H72" id="ay"/><path fill="#3a414a" d="M117-194c89-4 53 116 60 194h-32v-121c0-31-8-49-39-48C34-167 62-67 57 0H25l-1-190h30c1 10-1 24 2 32 11-22 29-35 61-36" id="az"/><g id="q"><use transform="matrix(0.08024691358024691,0,0,0.08024691358024691,0,0)" xlink:href="#ax"/><use transform="matrix(0.08024691358024691,0,0,0.08024691358024691,5.4567901234567895,0)" xlink:href="#ay"/><use transform="matrix(0.08024691358024691,0,0,0.08024691358024691,13.481481481481481,0)" xlink:href="#az"/><use transform="matrix(0.08024691358024691,0,0,0.08024691358024691,29.530864197530864,0)" xlink:href="#ax"/></g><path fill="#333" d="M146-102V0H94v-102L6-248h54l60 105 60-105h54" id="aA"/><path fill="#333" d="M185-48c-13 30-37 53-82 52C43 2 14-33 14-96s30-98 90-98c62 0 83 45 84 108H66c0 31 8 55 39 56 18 0 30-7 34-22zm-45-69c5-46-57-63-70-21-2 6-4 13-4 21h74" id="aB"/><path fill="#333" d="M137-138c1-29-70-34-71-4 15 46 118 7 119 86 1 83-164 76-172 9l43-7c4 19 20 25 44 25 33 8 57-30 24-41C81-84 22-81 20-136c-2-80 154-74 161-7" id="aC"/><g id="r"><use transform="matrix(0.06790123456790123,0,0,0.06790123456790123,0,0)" xlink:href="#aA"/><use transform="matrix(0.06790123456790123,0,0,0.06790123456790123,14.938271604938269,0)" xlink:href="#aB"/><use transform="matrix(0.06790123456790123,0,0,0.06790123456790123,28.518518518518515,0)" xlink:href="#aC"/></g><path fill="#333" d="M175 0L67-191c6 58 2 128 3 191H24v-248h59L193-55c-6-58-2-129-3-193h46V0h-61" id="aD"/><path fill="#333" d="M110-194c64 0 96 36 96 99 0 64-35 99-97 99-61 0-95-36-95-99 0-62 34-99 96-99zm-1 164c35 0 45-28 45-65 0-40-10-65-43-65-34 0-45 26-45 65 0 36 10 65 43 65" id="aE"/><g id="s"><use transform="matrix(0.06790123456790123,0,0,0.06790123456790123,0,0)" xlink:href="#aD"/><use transform="matrix(0.06790123456790123,0,0,0.06790123456790123,17.586419753086417,0)" xlink:href="#aE"/></g><g id="t"><use transform="matrix(0.08024691358024691,0,0,0.08024691358024691,0,0)" xlink:href="#ac"/><use transform="matrix(0.08024691358024691,0,0,0.08024691358024691,8.024691358024691,0)" xlink:href="#ah"/></g><path fill="#3a414a" d="M140-251c81 0 123 46 123 126C263-46 219 4 140 4 59 4 17-45 17-125s42-126 123-126zm0 227c63 0 89-41 89-101s-29-99-89-99c-61 0-89 39-89 99S79-25 140-24" id="aF"/><g id="u"><use transform="matrix(0.08024691358024691,0,0,0.08024691358024691,0,0)" xlink:href="#Y"/><use transform="matrix(0.08024691358024691,0,0,0.08024691358024691,19.25925925925926,0)" xlink:href="#aF"/><use transform="matrix(0.08024691358024691,0,0,0.08024691358024691,41.72839506172839,0)" xlink:href="#X"/></g><g id="v"><use transform="matrix(0.08024691358024691,0,0,0.08024691358024691,0,0)" xlink:href="#R"/><use transform="matrix(0.08024691358024691,0,0,0.08024691358024691,16.049382716049383,0)" xlink:href="#M"/></g><path fill="#3a414a" d="M190 0L58-211 59 0H30v-248h39L202-35l-2-213h31V0h-41" id="aG"/><path fill="#3a414a" d="M30 0v-248h33v221h125V0H30" id="aH"/><g id="w"><use transform="matrix(0.08024691358024691,0,0,0.08024691358024691,0,0)" xlink:href="#aG"/><use transform="matrix(0.08024691358024691,0,0,0.08024691358024691,20.78395061728395,0)" xlink:href="#W"/><use transform="matrix(0.08024691358024691,0,0,0.08024691358024691,41.5679012345679,0)" xlink:href="#aH"/><use transform="matrix(0.08024691358024691,0,0,0.08024691358024691,57.61728395061728,0)" xlink:href="#aH"/></g><path fill="#3a414a" d="M127-220V0H93v-220H8v-28h204v28h-85" id="aI"/><g id="x"><use transform="matrix(0.08024691358024691,0,0,0.08024691358024691,0,0)" xlink:href="#aI"/><use transform="matrix(0.08024691358024691,0,0,0.08024691358024691,14.364197530864196,0)" xlink:href="#N"/><use transform="matrix(0.08024691358024691,0,0,0.08024691358024691,30.41358024691358,0)" xlink:href="#M"/><use transform="matrix(0.08024691358024691,0,0,0.08024691358024691,39.96296296296296,0)" xlink:href="#S"/><use transform="matrix(0.08024691358024691,0,0,0.08024691358024691,63.956790123456784,0)" xlink:href="#aw"/><use transform="matrix(0.08024691358024691,0,0,0.08024691358024691,70.29629629629629,0)" xlink:href="#az"/><use transform="matrix(0.08024691358024691,0,0,0.08024691358024691,86.34567901234567,0)" xlink:href="#O"/><use transform="matrix(0.08024691358024691,0,0,0.08024691358024691,102.39506172839505,0)" xlink:href="#au"/><use transform="matrix(0.08024691358024691,0,0,0.08024691358024691,110.41975308641975,0)" xlink:href="#R"/><use transform="matrix(0.08024691358024691,0,0,0.08024691358024691,126.46913580246913,0)" xlink:href="#M"/></g><path fill="#3a414a" d="M85 4C-2 5 27-109 22-190h50c7 57-23 150 33 157 60-5 35-97 40-157h50l1 190h-47c-2-12 1-28-3-38-12 25-28 42-61 42" id="aJ"/><g id="y"><use transform="matrix(0.08024691358024691,0,0,0.08024691358024691,0,0)" xlink:href="#aj"/><use transform="matrix(0.08024691358024691,0,0,0.08024691358024691,11.234567901234568,0)" xlink:href="#am"/><use transform="matrix(0.08024691358024691,0,0,0.08024691358024691,27.28395061728395,0)" xlink:href="#ao"/><use transform="matrix(0.08024691358024691,0,0,0.08024691358024691,36.83333333333333,0)" xlink:href="#aJ"/><use transform="matrix(0.08024691358024691,0,0,0.08024691358024691,54.407407407407405,0)" xlink:href="#aj"/><use transform="matrix(0.08024691358024691,0,0,0.08024691358024691,65.64197530864197,0)" xlink:href="#at"/></g><g id="z"><use transform="matrix(0.08024691358024691,0,0,0.08024691358024691,0,0)" xlink:href="#ar"/><use transform="matrix(0.08024691358024691,0,0,0.08024691358024691,8.024691358024691,0)" xlink:href="#as"/><use transform="matrix(0.08024691358024691,0,0,0.08024691358024691,16.049382716049383,0)" xlink:href="#at"/><use transform="matrix(0.08024691358024691,0,0,0.08024691358024691,33.623456790123456,0)" xlink:href="#am"/></g><path fill="#3a414a" d="M141 0L90-78 38 0H4l68-98-65-92h35l48 74 47-74h35l-64 92 68 98h-35" id="aK"/><g id="A"><use transform="matrix(0.10493827160493824,0,0,0.10493827160493824,0,0)" xlink:href="#Y"/><use transform="matrix(0.10493827160493824,0,0,0.10493827160493824,25.185185185185176,0)" xlink:href="#aK"/><use transform="matrix(0.10493827160493824,0,0,0.10493827160493824,44.07407407407406,0)" xlink:href="#au"/><use transform="matrix(0.10493827160493824,0,0,0.10493827160493824,54.567901234567884,0)" xlink:href="#M"/><use transform="matrix(0.10493827160493824,0,0,0.10493827160493824,67.05555555555553,0)" xlink:href="#O"/><use transform="matrix(0.10493827160493824,0,0,0.10493827160493824,88.04320987654317,0)" xlink:href="#af"/><use transform="matrix(0.10493827160493824,0,0,0.10493827160493824,106.93209876543206,0)" xlink:href="#au"/></g><g id="B"><use transform="matrix(0.10493827160493824,0,0,0.10493827160493824,0,0)" xlink:href="#au"/><use transform="matrix(0.10493827160493824,0,0,0.10493827160493824,10.493827160493824,0)" xlink:href="#ag"/><use transform="matrix(0.10493827160493824,0,0,0.10493827160493824,31.48148148148147,0)" xlink:href="#N"/></g><g id="C"><use transform="matrix(0.10493827160493824,0,0,0.10493827160493824,0,0)" xlink:href="#Q"/><use transform="matrix(0.10493827160493824,0,0,0.10493827160493824,10.493827160493824,0)" xlink:href="#aw"/><use transform="matrix(0.10493827160493824,0,0,0.10493827160493824,18.783950617283946,0)" xlink:href="#M"/><use transform="matrix(0.10493827160493824,0,0,0.10493827160493824,31.271604938271594,0)" xlink:href="#ah"/><use transform="matrix(0.10493827160493824,0,0,0.10493827160493824,50.16049382716048,0)" xlink:href="#au"/></g><path fill="#3a414a" d="M24 0v-261h32V0H24" id="aL"/><g id="D"><use transform="matrix(0.10493827160493824,0,0,0.10493827160493824,0,0)" xlink:href="#aL"/><use transform="matrix(0.10493827160493824,0,0,0.10493827160493824,8.290123456790122,0)" xlink:href="#aw"/><use transform="matrix(0.10493827160493824,0,0,0.10493827160493824,16.580246913580243,0)" xlink:href="#az"/><use transform="matrix(0.10493827160493824,0,0,0.10493827160493824,37.56790123456789,0)" xlink:href="#N"/></g><path fill="#3a414a" d="M9 0v-24l116-142H16v-24h144v24L44-24h123V0H9" id="aM"/><g id="E"><use transform="matrix(0.06790123456790123,0,0,0.06790123456790123,0,0)" xlink:href="#aw"/><use transform="matrix(0.06790123456790123,0,0,0.06790123456790123,5.364197530864197,0)" xlink:href="#az"/><use transform="matrix(0.06790123456790123,0,0,0.06790123456790123,18.944444444444443,0)" xlink:href="#aw"/><use transform="matrix(0.06790123456790123,0,0,0.06790123456790123,24.30864197530864,0)" xlink:href="#au"/><use transform="matrix(0.06790123456790123,0,0,0.06790123456790123,31.098765432098762,0)" xlink:href="#aw"/><use transform="matrix(0.06790123456790123,0,0,0.06790123456790123,36.46296296296296,0)" xlink:href="#O"/><use transform="matrix(0.06790123456790123,0,0,0.06790123456790123,50.04320987654321,0)" xlink:href="#aL"/><use transform="matrix(0.06790123456790123,0,0,0.06790123456790123,55.407407407407405,0)" xlink:href="#aw"/><use transform="matrix(0.06790123456790123,0,0,0.06790123456790123,60.7716049382716,0)" xlink:href="#aM"/><use transform="matrix(0.06790123456790123,0,0,0.06790123456790123,72.99382716049382,0)" xlink:href="#N"/></g><path fill="#3a414a" d="M108 0H70L1-190h34L89-25l56-165h34" id="aN"/><g id="F"><use transform="matrix(0.06790123456790123,0,0,0.06790123456790123,0,0)" xlink:href="#aN"/><use transform="matrix(0.06790123456790123,0,0,0.06790123456790123,12.222222222222221,0)" xlink:href="#O"/><use transform="matrix(0.06790123456790123,0,0,0.06790123456790123,25.80246913580247,0)" xlink:href="#M"/><use transform="matrix(0.06790123456790123,0,0,0.06790123456790123,33.882716049382715,0)" xlink:href="#ah"/></g><path fill="#3a414a" d="M84 4C-5 8 30-112 23-190h32v120c0 31 7 50 39 49 72-2 45-101 50-169h31l1 190h-30c-1-10 1-25-2-33-11 22-28 36-60 37" id="aO"/><path fill="#3a414a" d="M177-190C167-65 218 103 67 71c-23-6-38-20-44-43l32-5c15 47 100 32 89-28v-30C133-14 115 1 83 1 29 1 15-40 15-95c0-56 16-97 71-98 29-1 48 16 59 35 1-10 0-23 2-32h30zM94-22c36 0 50-32 50-73 0-42-14-75-50-75-39 0-46 34-46 75s6 73 46 73" id="aP"/><g id="G"><use transform="matrix(0.06790123456790123,0,0,0.06790123456790123,0,0)" xlink:href="#aw"/><use transform="matrix(0.06790123456790123,0,0,0.06790123456790123,5.364197530864197,0)" xlink:href="#az"/><use transform="matrix(0.06790123456790123,0,0,0.06790123456790123,18.944444444444443,0)" xlink:href="#af"/><use transform="matrix(0.06790123456790123,0,0,0.06790123456790123,31.166666666666664,0)" xlink:href="#aL"/><use transform="matrix(0.06790123456790123,0,0,0.06790123456790123,36.53086419753086,0)" xlink:href="#aO"/><use transform="matrix(0.06790123456790123,0,0,0.06790123456790123,50.11111111111111,0)" xlink:href="#P"/><use transform="matrix(0.06790123456790123,0,0,0.06790123456790123,63.691358024691354,0)" xlink:href="#aw"/><use transform="matrix(0.06790123456790123,0,0,0.06790123456790123,69.05555555555556,0)" xlink:href="#az"/><use transform="matrix(0.06790123456790123,0,0,0.06790123456790123,82.6358024691358,0)" xlink:href="#aP"/></g><path fill="#3a414a" d="M68-38c1 34 0 65-14 84H32c9-13 17-26 17-46H33v-38h35" id="aQ"/><g id="H"><use transform="matrix(0.06790123456790123,0,0,0.06790123456790123,0,0)" xlink:href="#ah"/><use transform="matrix(0.06790123456790123,0,0,0.06790123456790123,12.222222222222221,0)" xlink:href="#au"/><use transform="matrix(0.06790123456790123,0,0,0.06790123456790123,19.012345679012345,0)" xlink:href="#O"/><use transform="matrix(0.06790123456790123,0,0,0.06790123456790123,32.592592592592595,0)" xlink:href="#au"/><use transform="matrix(0.06790123456790123,0,0,0.06790123456790123,39.38271604938272,0)" xlink:href="#aw"/><use transform="matrix(0.06790123456790123,0,0,0.06790123456790123,44.74691358024692,0)" xlink:href="#af"/><use transform="matrix(0.06790123456790123,0,0,0.06790123456790123,56.96913580246914,0)" xlink:href="#aQ"/></g><g id="I"><use transform="matrix(0.06790123456790123,0,0,0.06790123456790123,0,0)" xlink:href="#V"/><use transform="matrix(0.06790123456790123,0,0,0.06790123456790123,16.296296296296294,0)" xlink:href="#W"/><use transform="matrix(0.06790123456790123,0,0,0.06790123456790123,33.88271604938271,0)" xlink:href="#X"/><use transform="matrix(0.06790123456790123,0,0,0.06790123456790123,48.753086419753075,0)" xlink:href="#X"/><use transform="matrix(0.06790123456790123,0,0,0.06790123456790123,63.62345679012344,0)" xlink:href="#Y"/><use transform="matrix(0.06790123456790123,0,0,0.06790123456790123,79.91975308641973,0)" xlink:href="#Z"/><use transform="matrix(0.06790123456790123,0,0,0.06790123456790123,97.50617283950615,0)" xlink:href="#aa"/><use transform="matrix(0.06790123456790123,0,0,0.06790123456790123,111.0864197530864,0)" xlink:href="#ab"/><use transform="matrix(0.06790123456790123,0,0,0.06790123456790123,127.3827160493827,0)" xlink:href="#ac"/><use transform="matrix(0.06790123456790123,0,0,0.06790123456790123,134.1728395061728,0)" xlink:href="#ad"/><use transform="matrix(0.06790123456790123,0,0,0.06790123456790123,149.0432098765432,0)" xlink:href="#Y"/><use transform="matrix(0.06790123456790123,0,0,0.06790123456790123,165.3395061728395,0)" xlink:href="#aQ"/></g><g id="J"><use transform="matrix(0.06790123456790123,0,0,0.06790123456790123,0,0)" xlink:href="#aP"/><use transform="matrix(0.06790123456790123,0,0,0.06790123456790123,13.580246913580247,0)" xlink:href="#P"/></g><path fill="#333" d="M135-150c-39-12-60 13-60 57V0H25l-1-190h47c2 13-1 29 3 40 6-28 27-53 61-41v41" id="aR"/><path fill="#333" d="M133-34C117-15 103 5 69 4 32 3 11-16 11-54c-1-60 55-63 116-61 1-26-3-47-28-47-18 1-26 9-28 27l-52-2c7-38 36-58 82-57s74 22 75 68l1 82c-1 14 12 18 25 15v27c-30 8-71 5-69-32zm-48 3c29 0 43-24 42-57-32 0-66-3-65 30 0 17 8 27 23 27" id="aS"/><path fill="#333" d="M88-194c31-1 46 15 58 34l-1-101h50l1 261h-48c-2-10 0-23-3-31C134-8 116 4 84 4 32 4 16-41 15-95c0-56 19-97 73-99zm17 164c33 0 40-30 41-66 1-37-9-64-41-64s-38 30-39 65c0 43 13 65 39 65" id="aT"/><g id="K"><use transform="matrix(0.04938271604938272,0,0,0.04938271604938272,0,0)" xlink:href="#aR"/><use transform="matrix(0.04938271604938272,0,0,0.04938271604938272,6.913580246913581,0)" xlink:href="#aB"/><use transform="matrix(0.04938271604938272,0,0,0.04938271604938272,16.790123456790127,0)" xlink:href="#aS"/><use transform="matrix(0.04938271604938272,0,0,0.04938271604938272,26.666666666666668,0)" xlink:href="#aT"/></g><path fill="#333" d="M195-6C206 82 75 100 31 46c-4-6-6-13-8-21l49-6c3 16 16 24 34 25 40 0 42-37 40-79-11 22-30 35-61 35-53 0-70-43-70-97 0-56 18-96 73-97 30 0 46 14 59 34l2-30h47zm-90-29c32 0 41-27 41-63 0-35-9-62-40-62-32 0-39 29-40 63 0 36 9 62 39 62" id="aU"/><path fill="#333" d="M25-224v-37h50v37H25zM25 0v-190h50V0H25" id="aV"/><path fill="#333" d="M135-194c87-1 58 113 63 194h-50c-7-57 23-157-34-157-59 0-34 97-39 157H25l-1-190h47c2 12-1 28 3 38 12-26 28-41 61-42" id="aW"/><g id="L"><use transform="matrix(0.04938271604938272,0,0,0.04938271604938272,0,0)" xlink:href="#aS"/><use transform="matrix(0.04938271604938272,0,0,0.04938271604938272,9.876543209876544,0)" xlink:href="#aU"/><use transform="matrix(0.04938271604938272,0,0,0.04938271604938272,20.69135802469136,0)" xlink:href="#aS"/><use transform="matrix(0.04938271604938272,0,0,0.04938271604938272,30.567901234567906,0)" xlink:href="#aV"/><use transform="matrix(0.04938271604938272,0,0,0.04938271604938272,35.50617283950618,0)" xlink:href="#aW"/></g></defs></g></svg>